<?xml version="1.0" encoding="iso-8859-1"?>
<!-- Generator: Adobe Illustrator 17.1.0, SVG Export Plug-In . SVG Version: 6.00 Build 0)  -->
<!DOCTYPE svg PUBLIC "-//W3C//DTD SVG 1.1//EN" "http://www.w3.org/Graphics/SVG/1.1/DTD/svg11.dtd">
<svg version="1.1" id="Layer_1" xmlns="http://www.w3.org/2000/svg" xmlns:xlink="http://www.w3.org/1999/xlink" x="0px" y="0px"
	 viewBox="0 0 800 800" style="enable-background:new 0 0 800 800;" xml:space="preserve">
<path d="M361.25,386.667c106.775,0,193.333-86.558,193.333-193.333S468.025,0,361.25,0S167.917,86.558,167.917,193.333
	S254.475,386.667,361.25,386.667z M452.834,270.071c-8.795,29.08-46.47,50.939-91.622,50.939c-45.153,0-82.827-21.86-91.622-50.939
	H452.834z M767.917,666.667v26.667c0,7.364-5.969,13.333-13.333,13.333h-80v80c0,7.364-5.969,13.333-13.333,13.333h-26.667
	c-7.364,0-13.333-5.969-13.333-13.333v-80h-80c-7.364,0-13.333-5.969-13.333-13.333v-26.667c0-7.364,5.969-13.333,13.333-13.333h80
	v-80c0-7.364,5.969-13.333,13.333-13.333h26.667c7.364,0,13.333,5.969,13.333,13.333v80h80
	C761.947,653.333,767.917,659.303,767.917,666.667z M501.25,666.667v26.667c0,7.083,2.007,13.645,5.25,19.422
	C466.235,717.134,418.238,720,361.25,720c-186.414,0-277.638-30.46-311.083-45.341c-8.63-3.84-15.583-14.818-15.583-24.263v-63.729
	c0-95.498,72.71-174.723,165.489-185.334c2.819-0.323,7,0.884,9.298,2.548c42.778,30.969,95.15,49.452,151.88,49.452
	s109.102-18.483,151.88-49.452c2.298-1.664,6.479-2.871,9.298-2.548c76.792,8.783,139.697,64.624,159.143,137.738
	c-5.977-3.56-12.873-5.737-20.321-5.737h-26.667c-22.057,0-40,17.943-40,40v53.333H541.25
	C519.193,626.667,501.25,644.609,501.25,666.667z"/>
</svg>
