<?xml version="1.0" encoding="iso-8859-1"?>
<!-- Generator: Adobe Illustrator 18.0.0, SVG Export Plug-In . SVG Version: 6.00 Build 0)  -->
<!DOCTYPE svg PUBLIC "-//W3C//DTD SVG 1.1//EN" "http://www.w3.org/Graphics/SVG/1.1/DTD/svg11.dtd">
<svg version="1.1" id="Capa_1" xmlns="http://www.w3.org/2000/svg" xmlns:xlink="http://www.w3.org/1999/xlink" x="0px" y="0px"
	 viewBox="0 0 16 18" style="enable-background:new 0 0 16 18;" xml:space="preserve">
<g id="user_-_single_delete_cross">
	<g>
		<path style="fill-rule:evenodd;clip-rule:evenodd;" d="M2.934,9.016C3.704,9.627,4.647,10,5.677,10S7.65,9.627,8.421,9.016
			C9.113,9.069,9.705,9.452,10.037,10h1.135c-0.318-0.86-1.031-1.537-1.93-1.831c0.664-0.865,1.08-1.96,1.08-3.169
			c0-2.762-2.08-5-4.645-5C3.112,0,1.032,2.238,1.032,5c0,1.21,0.416,2.305,1.08,3.169C0.888,8.569,0,9.679,0,11v2
			c0,1.657,1.386,3,3.097,3H8l0.129-1H3.097c-1.14,0-2.065-0.895-2.065-2v-2C1.032,9.949,1.871,9.098,2.934,9.016z M2.065,5
			c0-2.209,1.618-4,3.613-4C7.673,1,9.29,2.791,9.29,5c0,2.209-1.617,4-3.613,4C3.682,9,2.065,7.209,2.065,5z M12.056,13
			l1.217-1.179c0.193-0.188,0.193-0.491,0-0.679c-0.194-0.187-0.507-0.187-0.701,0l-1.217,1.179l-1.217-1.179
			c-0.193-0.187-0.507-0.187-0.701,0c-0.193,0.188-0.193,0.491,0,0.679L10.654,13l-1.217,1.179c-0.193,0.187-0.193,0.491,0,0.679
			c0.193,0.187,0.507,0.187,0.701,0l1.217-1.179l1.217,1.179c0.193,0.187,0.507,0.187,0.701,0c0.193-0.188,0.193-0.492,0-0.679
			L12.056,13z"/>
	</g>
</g>
<g>
</g>
<g>
</g>
<g>
</g>
<g>
</g>
<g>
</g>
<g>
</g>
<g>
</g>
<g>
</g>
<g>
</g>
<g>
</g>
<g>
</g>
<g>
</g>
<g>
</g>
<g>
</g>
<g>
</g>
</svg>
