<?xml version="1.0" encoding="UTF-8" standalone="no"?>
<!-- Created with Inkscape (http://www.inkscape.org/) -->

<svg
   xmlns:dc="http://purl.org/dc/elements/1.1/"
   xmlns:cc="http://creativecommons.org/ns#"
   xmlns:rdf="http://www.w3.org/1999/02/22-rdf-syntax-ns#"
   xmlns:svg="http://www.w3.org/2000/svg"
   xmlns="http://www.w3.org/2000/svg"
   version="1.1"
   width="100%"
   height="100%"
   viewBox="0 0 90 90"
   id="Layer_1"
   xml:space="preserve"><metadata
     id="metadata9"><rdf:RDF><cc:Work
         rdf:about=""><dc:format>image/svg+xml</dc:format><dc:type
           rdf:resource="http://purl.org/dc/dcmitype/StillImage" /><dc:title></dc:title></cc:Work></rdf:RDF></metadata><defs
     id="defs7" /><path
     d="m 28.594,55.200024 c 0.472,1.274 -12.684,13.024 -5.009,22.544 1.797,2.228 7.888,-10.66 16.538,-16.496 4.773,-3.219 14.877,-9.748 15.877,-13.857 0,0 2,-6.891 2,-12.891 0,-6 -2,-11.62 -2,-11.62 -2,-4.38 -17.607,-9.38 -30.993,-9.38 -4.9,0 -12.007,30.728 -12.007,35.61 0,4.899 15.122,4.816 15.594,6.09 z m 45.406,-2.7 -15,0 c 0,0 3,-8 3,-18 0,-12 -3,-17 -3,-17 l 15,0 c 0,0 3,8 3,16 0,13 -3,19 -3,19 z"
     id="path3" /></svg>