<?xml version="1.0" encoding="utf-8"?>
<!-- Generator: Adobe Illustrator 16.0.4, SVG Export Plug-In . SVG Version: 6.00 Build 0)  -->
<!DOCTYPE svg PUBLIC "-//W3C//DTD SVG 1.1//EN" "http://www.w3.org/Graphics/SVG/1.1/DTD/svg11.dtd">
<svg version="1.1" id="Layer_1" xmlns="http://www.w3.org/2000/svg" xmlns:xlink="http://www.w3.org/1999/xlink" x="0px" y="0px"
	 width="50px" height="50px" viewBox="0 0 50 50" enable-background="new 0 0 50 50" xml:space="preserve">
<path d="M39.195,29.341c-0.235-0.266-0.662-0.582-1.357-0.582c-0.015,0-0.032,0.005-0.047,0.005
	c0.479-1.416,0.763-2.923,0.763-4.502c0-7.801-6.324-14.125-14.125-14.125s-14.125,6.324-14.125,14.125s6.323,14.126,14.124,14.126
	c2.281,0,4.432-0.548,6.338-1.508c0.031,0.069,0.068,0.154,0.092,0.208l0.104,1.833c0.03,0.528,0.468,0.942,0.999,0.942h5.365
	c0.552,0,1-0.448,1-1v-2.093c0.213-0.738,1.178-4.121,1.346-5.512C39.726,30.805,39.737,29.953,39.195,29.341z M24.225,15.158
	c1.117,0,1.931,0.837,1.931,1.905c0,1.067-0.813,1.854-1.956,1.854c-1.169,0-1.931-0.787-1.931-1.854
	C22.269,15.995,23.031,15.158,24.225,15.158z M27.45,33.366h-6.044v-1.93l0.837-0.077c0.458-0.05,0.737-0.203,0.737-0.812v-7.061
	c0-0.558-0.153-0.735-0.636-0.735l-0.888-0.053v-2.107h4.546v10.667l1.447,0.077L27.45,33.366L27.45,33.366z M38.678,31.138
	c-0.178,1.469-1.354,5.49-1.354,5.49v2.234h-5.365l-0.115-2.017c0,0-1.667-3.677-1.792-5.208c-0.087-1.069,1.236-1.27,1.236-1.27
	s-0.069-5.422,0.335-7.063c0.048-0.196,0.423-0.293,0.801-0.293c0.38,0,0.763,0.098,0.82,0.293c0.433,1.476,0.475,6.458,0.475,6.458
	c0.202-0.202,0.438-0.271,0.667-0.271c0.532,0,1.038,0.375,1.038,0.375c0.241-0.225,0.471-0.305,0.676-0.305
	c0.511,0,0.87,0.494,0.87,0.494s0.385-0.224,0.5-0.25c0.138-0.031,0.258-0.045,0.367-0.045
	C38.749,29.76,38.723,30.764,38.678,31.138z"/>
</svg>
