<?xml version="1.0" encoding="UTF-8" standalone="no"?>
<!-- Created with Inkscape (http://www.inkscape.org/) -->

<svg
   xmlns:dc="http://purl.org/dc/elements/1.1/"
   xmlns:cc="http://creativecommons.org/ns#"
   xmlns:rdf="http://www.w3.org/1999/02/22-rdf-syntax-ns#"
   xmlns:svg="http://www.w3.org/2000/svg"
   xmlns="http://www.w3.org/2000/svg"
   version="1.1"
   width="24.837999"
   height="25.514"
   viewBox="0 0 24.838 25.514"
   id="Capa_1"
   xml:space="preserve"><metadata
     id="metadata39"><rdf:RDF><cc:Work
         rdf:about=""><dc:format>image/svg+xml</dc:format><dc:type
           rdf:resource="http://purl.org/dc/dcmitype/StillImage" /><dc:title></dc:title></cc:Work></rdf:RDF></metadata><defs
     id="defs37" /><path
     d="m 20.390439,14.777686 -6.703693,-3.934257 h 3.743635 V 0.10811016 H 6.6943164 V 10.843429 H 10.590284 L 4.5257968,14.777686 H 0.10811017 V 25.514 H 10.841188 V 14.777686 H 6.7331467 l 5.3277083,-3.470233 6.16206,3.470233 H 14.101932 V 25.514 H 24.837 V 14.777686 H 20.390439 z M 8.6985543,2.1952288 H 15.423155 V 8.921606 H 8.6985543 V 2.1952288 z M 8.8389406,16.865801 v 6.726376 h -6.725597 v -6.726376 h 6.725597 z m 13.9938224,6.726376 h -6.723607 v -6.726376 h 6.723607 v 6.726376 z"
     id="path3"
     style="fill:#000000" /><g
     id="g5" /><g
     id="g7" /><g
     id="g9" /><g
     id="g11" /><g
     id="g13" /><g
     id="g15" /><g
     id="g17" /><g
     id="g19" /><g
     id="g21" /><g
     id="g23" /><g
     id="g25" /><g
     id="g27" /><g
     id="g29" /><g
     id="g31" /><g
     id="g33" /><g
     transform="matrix(0.50149198,0,0,0.65404745,16.198737,-2.7700848)"
     id="g3864"
     style="display:block"><g
       id="reply"><path
         d="M 10,9 V 5 l -7,7 7,7 v -4.1 c 5,0 8.5,1.6 11,5.1 C 20,15 17,10 10,9 z"
         id="path3856" /></g></g></svg>