<?xml version="1.0" encoding="UTF-8" standalone="no"?>
<!-- Created with Inkscape (http://www.inkscape.org/) -->

<svg
   xmlns:dc="http://purl.org/dc/elements/1.1/"
   xmlns:cc="http://creativecommons.org/ns#"
   xmlns:rdf="http://www.w3.org/1999/02/22-rdf-syntax-ns#"
   xmlns:svg="http://www.w3.org/2000/svg"
   xmlns="http://www.w3.org/2000/svg"
   version="1.1"
   width="24.837999"
   height="25.514"
   viewBox="0 0 24.838 25.514"
   id="Capa_1"
   xml:space="preserve"><metadata
     id="metadata39"><rdf:RDF><cc:Work
         rdf:about=""><dc:format>image/svg+xml</dc:format><dc:type
           rdf:resource="http://purl.org/dc/dcmitype/StillImage" /><dc:title></dc:title></cc:Work></rdf:RDF></metadata><defs
     id="defs37" /><path
     d="m 20.371,14.732 -6.733,-3.951 h 3.76 V 0 H 6.615 v 10.781 h 3.913 L 4.437,14.732 H 0 V 25.514 H 10.78 V 14.732 H 6.654 l 5.351,-3.485 6.189,3.485 H 14.055 V 25.514 H 24.837 V 14.732 H 20.371 z M 8.628,2.096 h 6.754 V 8.851 H 8.628 V 2.096 z m 0.141,14.733 v 6.755 H 2.014 v -6.755 h 6.755 z m 14.055,6.755 h -6.753 v -6.755 h 6.753 v 6.755 z"
     id="path3"
     style="fill:#000000" /><g
     id="g5" /><g
     id="g7" /><g
     id="g9" /><g
     id="g11" /><g
     id="g13" /><g
     id="g15" /><g
     id="g17" /><g
     id="g19" /><g
     id="g21" /><g
     id="g23" /><g
     id="g25" /><g
     id="g27" /><g
     id="g29" /><g
     id="g31" /><g
     id="g33" /><g
     transform="matrix(0.35193867,0,0,0.33259356,17.147865,-0.14976266)"
     id="g4283"><polygon
       points="8.61,8.611 0,8.611 0,13.744 8.61,13.744 8.61,22.354 13.744,22.354 13.744,13.744 22.354,13.744 22.354,8.611 13.744,8.611 13.744,0 8.61,0 "
       id="polygon4245" /><g
       id="g4247" /><g
       id="g4249" /><g
       id="g4251" /><g
       id="g4253" /><g
       id="g4255" /><g
       id="g4257" /><g
       id="g4259" /><g
       id="g4261" /><g
       id="g4263" /><g
       id="g4265" /><g
       id="g4267" /><g
       id="g4269" /><g
       id="g4271" /><g
       id="g4273" /><g
       id="g4275" /></g></svg>