<?xml version="1.0" encoding="iso-8859-1"?>
<!-- Generator: Adobe Illustrator 18.0.0, SVG Export Plug-In . SVG Version: 6.00 Build 0)  -->
<!DOCTYPE svg PUBLIC "-//W3C//DTD SVG 1.1//EN" "http://www.w3.org/Graphics/SVG/1.1/DTD/svg11.dtd">
<svg version="1.1" id="Capa_1" xmlns="http://www.w3.org/2000/svg" xmlns:xlink="http://www.w3.org/1999/xlink" x="0px" y="0px"
	 viewBox="0 0 28 30" style="enable-background:new 0 0 28 30;" xml:space="preserve">
<g id="_x36__6_">
	<g>
		<path style="fill-rule:evenodd;clip-rule:evenodd;" d="M24,18v-8c0-5.523-4.477-10-10-10C8.477,0,4,4.477,4,10v8l-4,8h9.101
			c0.463,2.282,2.48,4,4.899,4s4.436-1.718,4.899-4H28L24,18z M14,28c-1.304,0-2.403-0.837-2.816-2h5.633
			C16.403,27.163,15.304,28,14,28z M3,24l3-6v-8c0-4.418,3.582-8,8-8s8,3.582,8,8v8l3,6H3z"/>
	</g>
</g>
<g>
</g>
<g>
</g>
<g>
</g>
<g>
</g>
<g>
</g>
<g>
</g>
<g>
</g>
<g>
</g>
<g>
</g>
<g>
</g>
<g>
</g>
<g>
</g>
<g>
</g>
<g>
</g>
<g>
</g>
</svg>
