<?xml version="1.0" encoding="utf-8"?>
<!-- Generator: Adobe Illustrator 17.0.0, SVG Export Plug-In . SVG Version: 6.00 Build 0)  -->
<!DOCTYPE svg PUBLIC "-//W3C//DTD SVG 1.1//EN" "http://www.w3.org/Graphics/SVG/1.1/DTD/svg11.dtd">
<svg version="1.1" id="Capa_1" xmlns="http://www.w3.org/2000/svg" xmlns:xlink="http://www.w3.org/1999/xlink" x="0px" y="0px"
	 width="64px" height="64px" viewBox="0 0 64 64" enable-background="new 0 0 64 64" xml:space="preserve">
<g>
	<path d="M11,53h42c0.561,0,1.084-0.229,1.435-0.628c0.305-0.346,0.44-0.785,0.382-1.236c-0.985-7.673-5.703-14.067-12.162-17.476
		c-2.73,2.73-6.499,4.421-10.655,4.421s-7.925-1.691-10.655-4.421c-6.459,3.408-11.178,9.803-12.162,17.476
		c-0.058,0.451,0.078,0.891,0.382,1.236C9.916,52.771,10.439,53,11,53z"/>
	<path d="M22.536,32.001c0.245,0.257,0.501,0.502,0.766,0.739c2.314,2.07,5.357,3.34,8.698,3.34s6.384-1.271,8.698-3.34
		c0.265-0.237,0.521-0.482,0.766-0.739c0.244-0.257,0.482-0.52,0.706-0.796c1.813-2.245,2.905-5.096,2.905-8.2
		C45.075,15.795,39.209,9.93,32,9.93s-13.075,5.866-13.075,13.075c0,3.104,1.092,5.955,2.905,8.2
		C22.053,31.481,22.291,31.743,22.536,32.001z"/>
</g>
</svg>
