<?xml version="1.0" encoding="UTF-8" standalone="no"?>
<!-- Created with Inkscape (http://www.inkscape.org/) -->

<svg
   xmlns:dc="http://purl.org/dc/elements/1.1/"
   xmlns:cc="http://creativecommons.org/ns#"
   xmlns:rdf="http://www.w3.org/1999/02/22-rdf-syntax-ns#"
   xmlns:svg="http://www.w3.org/2000/svg"
   xmlns="http://www.w3.org/2000/svg"
   version="1.1"
   width="30.482"
   height="31.829"
   viewBox="0 0 30.482 31.829"
   id="Layer_1"
   xml:space="preserve"><metadata
     id="metadata3138"><rdf:RDF><cc:Work
         rdf:about=""><dc:format>image/svg+xml</dc:format><dc:type
           rdf:resource="http://purl.org/dc/dcmitype/StillImage" /><dc:title></dc:title></cc:Work></rdf:RDF></metadata><defs
     id="defs3136" /><path
     d="M 30.482,0 H 0 V 4.058 H 2.324 V 29.67 h 10.029 c 0.413,1.251 1.578,2.159 2.967,2.159 1.389,0 2.554,-0.908 2.967,-2.159 h 10.03 V 4.058 h 2.165 V 0 z M 27.076,28.428 H 3.565 V 4.058 h 23.51 v 24.37 z"
     id="path3102" /><g
     id="g3104" /><g
     id="g3106" /><g
     id="g3108" /><g
     id="g3110" /><g
     id="g3112" /><g
     id="g3114" /><g
     id="g3116" /><g
     id="g3118" /><g
     id="g3120" /><g
     id="g3122" /><g
     id="g3124" /><g
     id="g3126" /><g
     id="g3128" /><g
     id="g3130" /><g
     id="g3132" /><path
     d="m 16.416261,27.788233 c 0.144651,0.15485 0.333222,0.232129 0.521721,0.232129 0.191477,0 0.382866,-0.07973 0.528071,-0.238947 0.288164,-0.315904 0.285347,-0.825054 -0.0073,-1.137187 l -0.583085,-0.624143 5.994902,0 c 1.005931,0 1.951651,-0.424334 2.662951,-1.194846 0.711301,-0.77053 1.103026,-1.794996 1.103026,-2.884677 l 0,-0.06618 c 0,-1.089678 -0.391725,-2.11413 -1.103026,-2.884642 -0.289886,-0.314057 -0.759921,-0.314057 -1.049822,0 -0.289915,0.31401 -0.289915,0.823181 0,1.137222 0.430888,0.466737 0.668183,1.087324 0.668183,1.74742 l 0,0.06618 c 0,1.362643 -1.023403,2.471253 -2.281312,2.471253 l -6.006083,0 0.603433,-0.661574 c 0.288163,-0.315919 0.285332,-0.825074 -0.0073,-1.137222 -0.291608,-0.312148 -0.761643,-0.309085 -1.049778,0.0062 l -1.861984,2.04133 c -0.138375,0.151756 -0.215459,0.356737 -0.214262,0.570013 9.64e-4,0.21326 0.08043,0.4173 0.220568,0.567195 l 1.859094,1.989857 z"
     id="path3227" /></svg>