<?xml version="1.0" encoding="UTF-8" standalone="no"?>
<!-- Created with Inkscape (http://www.inkscape.org/) -->

<svg
   xmlns:dc="http://purl.org/dc/elements/1.1/"
   xmlns:cc="http://creativecommons.org/ns#"
   xmlns:rdf="http://www.w3.org/1999/02/22-rdf-syntax-ns#"
   xmlns:svg="http://www.w3.org/2000/svg"
   xmlns="http://www.w3.org/2000/svg"
   version="1.1"
   width="30.482"
   height="31.829"
   viewBox="0 0 30.482 31.829"
   id="Layer_1"
   xml:space="preserve"><metadata
     id="metadata39"><rdf:RDF><cc:Work
         rdf:about=""><dc:format>image/svg+xml</dc:format><dc:type
           rdf:resource="http://purl.org/dc/dcmitype/StillImage" /><dc:title></dc:title></cc:Work></rdf:RDF></metadata><defs
     id="defs37" /><path
     d="M 30.482,0 H 0 V 4.058 H 2.324 V 29.67 h 10.029 c 0.413,1.251 1.578,2.159 2.967,2.159 1.389,0 2.554,-0.908 2.967,-2.159 h 10.03 V 4.058 h 2.165 V 0 z M 27.076,28.428 H 3.565 V 4.058 h 23.51 v 24.37 z"
     id="path3" /><g
     id="g5" /><g
     id="g7" /><g
     id="g9" /><g
     id="g11" /><g
     id="g13" /><g
     id="g15" /><g
     id="g17" /><g
     id="g19" /><g
     id="g21" /><g
     id="g23" /><g
     id="g25" /><g
     id="g27" /><g
     id="g29" /><g
     id="g31" /><g
     id="g33" /><path
     d="M 25.836062,22.209378 H 21.80662 V 18.4877 c 0,-0.322609 -0.282327,-0.583335 -0.632243,-0.583335 -0.349723,0 -0.632243,0.260905 -0.632243,0.583335 v 3.721678 h -4.029056 c -0.350109,0 -0.632243,0.261082 -0.632243,0.583512 0,0.322252 0.282327,0.583157 0.632243,0.583157 h 4.028863 v 3.721677 c 0,0.322609 0.282713,0.583513 0.632243,0.583513 0.350109,0 0.632243,-0.261083 0.632243,-0.583513 v -3.721499 h 4.029635 c 0.349723,0 0.631857,-0.260905 0.631857,-0.583156 0,-0.322609 -0.282327,-0.583691 -0.631857,-0.583691 z"
     id="path3120"
     style="fill:#231f20" /></svg>