<?xml version="1.0" encoding="iso-8859-1"?>
<!-- Generator: Adobe Illustrator 16.0.0, SVG Export Plug-In . SVG Version: 6.00 Build 0)  -->
<!DOCTYPE svg PUBLIC "-//W3C//DTD SVG 1.1//EN" "http://www.w3.org/Graphics/SVG/1.1/DTD/svg11.dtd">
<svg version="1.1" id="Capa_1" xmlns="http://www.w3.org/2000/svg" xmlns:xlink="http://www.w3.org/1999/xlink" x="0px" y="0px"
	 width="28.682px" height="30.143px" viewBox="0 0 28.682 30.143" style="enable-background:new 0 0 28.682 30.143;"
	 xml:space="preserve">
<path d="M19.303,2.357v3.824c3.482,1.798,5.869,5.427,5.869,9.619c0,5.98-4.848,10.83-10.828,10.83
	c-5.982,0-10.832-4.85-10.832-10.83c0-3.844,2.012-7.215,5.029-9.136V2.689C3.514,4.918,0,9.945,0,15.801
	c0,7.921,6.42,14.342,14.34,14.342c7.924,0,14.342-6.421,14.342-14.342C28.682,9.624,24.771,4.379,19.303,2.357z"/>
<path d="M14.064,17.652c1.576,0,1.736-0.931,1.736-2.076V2.08c0-1.148-0.16-2.08-1.736-2.08c-1.57,0-1.732,0.932-1.732,2.08v13.496
	C12.332,16.722,12.494,17.652,14.064,17.652z"/>
<g>
</g>
<g>
</g>
<g>
</g>
<g>
</g>
<g>
</g>
<g>
</g>
<g>
</g>
<g>
</g>
<g>
</g>
<g>
</g>
<g>
</g>
<g>
</g>
<g>
</g>
<g>
</g>
<g>
</g>
</svg>
