<?xml version="1.0" encoding="iso-8859-1"?>
<!-- Generator: Adobe Illustrator 16.0.0, SVG Export Plug-In . SVG Version: 6.00 Build 0)  -->
<!DOCTYPE svg PUBLIC "-//W3C//DTD SVG 1.1//EN" "http://www.w3.org/Graphics/SVG/1.1/DTD/svg11.dtd">
<svg version="1.1" id="Capa_1" xmlns="http://www.w3.org/2000/svg" xmlns:xlink="http://www.w3.org/1999/xlink" x="0px" y="0px"
	 width="500px" height="500px" viewBox="0 0 500 500" style="enable-background:new 0 0 500 500;" xml:space="preserve">
<g>
	<rect x="302.96" y="6.716" width="130.176" height="38.872"/>
	<rect x="323.789" y="98.354" width="130.127" height="38.958"/>
	<rect x="321.606" y="52.204" width="130.159" height="38.872"/>
	<rect x="297.351" y="144.744" width="130.212" height="38.89"/>
	<path d="M275.711,134.608h-118.15l5.268-35.906h-58.023L39.061,321.939h160.894l-0.086,176.458h58.279l-0.231-234.412H138.845
		l11.131-76.739h125.786v-0.017c0,0,0.152,0,0.238,0v-52.621C275.882,134.608,275.812,134.608,275.711,134.608z"/>
	<path d="M142.765,85.662c23.201,0,42.017-18.818,42.017-42.034c0-23.207-18.818-42.025-42.017-42.025
		c-23.217,0-42.034,18.818-42.034,42.025C100.731,66.845,119.549,85.664,142.765,85.662z"/>
	<polygon points="196.953,198.54 196.953,238.623 307.85,238.623 307.85,498.397 355.493,498.397 355.493,238.623 466.972,238.623 
		466.972,198.54 	"/>
	<polygon points="46.611,358.008 104.975,358.008 104.975,498.397 130.082,498.397 130.082,358.008 188.72,358.008 188.72,336.871 
		46.611,336.871 	"/>
</g>
</svg>
