<?xml version="1.0" encoding="UTF-8" standalone="no"?>
<!-- Created with Inkscape (http://www.inkscape.org/) -->

<svg
   xmlns:dc="http://purl.org/dc/elements/1.1/"
   xmlns:cc="http://creativecommons.org/ns#"
   xmlns:rdf="http://www.w3.org/1999/02/22-rdf-syntax-ns#"
   xmlns:svg="http://www.w3.org/2000/svg"
   xmlns="http://www.w3.org/2000/svg"
   version="1.1"
   width="100%"
   height="100%"
   viewBox="0 0 24 32"
   id="Capa_1"
   xml:space="preserve"><metadata
     id="metadata42"><rdf:RDF><cc:Work
         rdf:about=""><dc:format>image/svg+xml</dc:format><dc:type
           rdf:resource="http://purl.org/dc/dcmitype/StillImage" /><dc:title></dc:title></cc:Work></rdf:RDF></metadata><defs
     id="defs40" /><g
     id="paper"><g
       id="g4"><path
         d="M 23.989,7 17.968,0 H 0 V 32 H 24 V 7 H 23.989 z M 20.973,7 H 16.981 V 2.298 L 20.973,7 z M 22,30.062 H 2 V 2 H 15.063 V 9 H 22 v 21.062 z"
         id="path6"
         style="fill-rule:evenodd" /></g></g><g
     id="g8" /><g
     id="g10" /><g
     id="g12" /><g
     id="g14" /><g
     id="g16" /><g
     id="g18" /><g
     id="g20" /><g
     id="g22" /><g
     id="g24" /><g
     id="g26" /><g
     id="g28" /><g
     id="g30" /><g
     id="g32" /><g
     id="g34" /><g
     id="g36" /><path
     d="M 18.769009,13.732393 C 18.313398,12.220153 17.702662,10.917194 16.936939,9.8241017 16.171627,8.7310097 15.256282,7.8604819 14.191859,7.2131048 13.127712,6.5657409 12.012687,6.2419482 10.847594,6.2419482 c -1.1652191,0 -2.2801216,0.323988 -3.3445371,0.9711566 C 6.4386304,7.8604819 5.5235543,8.7308144 4.7579763,9.8241017 3.992387,10.917194 3.3816597,12.220153 2.9260438,13.732393 2.470428,15.244827 2.2425577,16.834255 2.2425577,18.500466 c 0,1.666211 0.2278703,3.258179 0.6834861,4.775888 0.455752,1.517892 1.0663432,2.823013 1.8319325,3.916495 0.765578,1.093092 1.6806541,1.96362 2.7450806,2.610607 1.0644155,0.647572 2.179318,0.971547 3.3445371,0.971547 1.165229,0 2.280118,-0.323975 3.344265,-0.971547 1.064423,-0.647182 1.979768,-1.517515 2.74508,-2.610607 0.765723,-1.093482 1.376459,-2.398603 1.83207,-3.916495 0.45561,-1.517709 0.683347,-3.109677 0.683347,-4.775888 -1.38e-4,-1.666211 -0.227737,-3.255639 -0.683347,-4.768073 z m -13.0195009,9.52793 c -0.6647748,-1.45361 -0.9971679,-3.040694 -0.9970318,-4.760052 0,-1.570661 0.2726982,-3.024675 0.8179812,-4.362015 0.5451355,-1.337352 1.284733,-2.393329 2.2183732,-3.168293 0.93364,-0.774782 1.9532279,-1.162075 3.0587633,-1.162075 1.232613,0 2.35273,0.483039 3.361318,1.448726 L 5.7495081,23.260323 z M 16.460562,21.883705 c -0.321252,1.077257 -0.754172,2.003275 -1.299585,2.778057 -0.545413,0.774795 -1.193279,1.39304 -1.944012,1.854395 -0.750734,0.461746 -1.540663,0.69271 -2.369644,0.69271 -1.1950656,0 -2.3043209,-0.472099 -3.3276275,-1.417079 L 15.96782,13.803915 c 0.650068,1.422159 0.974758,2.987741 0.974758,4.696356 -1.38e-4,1.178289 -0.160764,2.30597 -0.482016,3.383434 z"
     id="path3067" /></svg>