<?xml version="1.0" encoding="utf-8"?>
<!-- Generator: Adobe Illustrator 16.0.0, SVG Export Plug-In . SVG Version: 6.00 Build 0)  -->
<!DOCTYPE svg PUBLIC "-//W3C//DTD SVG 1.1//EN" "http://www.w3.org/Graphics/SVG/1.1/DTD/svg11.dtd">
<svg version="1.1" id="Layer_1" xmlns="http://www.w3.org/2000/svg" xmlns:xlink="http://www.w3.org/1999/xlink" x="0px" y="0px"
	 width="96px" height="96px" viewBox="0 0 96 96" enable-background="new 0 0 96 96" xml:space="preserve">
<path d="M92.237,47.816L74.545,25.455c-0.13-0.166-0.269-0.32-0.416-0.469l4.319-1.512v-5.561c0-1.551-1.256-2.811-2.81-2.811H5.387
	c-1.553,0-2.811,1.26-2.811,2.811v5.328l37.94,13.51l22.768-7.969l-7.096,8.969l-15.027,5.35l-0.65,0.229l-0.65-0.229L2.576,29.824
	v0.221v33.531c0,1.553,1.258,2.813,2.811,2.813h53.716v9.008c0,3.037,2.463,5.5,5.5,5.5H75.86c3.037,0,5.5-2.463,5.5-5.5V56.729
	h6.563c2.108,0,4.032-1.205,4.951-3.104c0.368-0.762,0.549-1.58,0.549-2.395C93.424,50.014,93.021,48.807,92.237,47.816z
	 M75.991,51.305v24.168H64.733V51.305H52.67l17.692-22.361l17.692,22.361H75.991z"/>
</svg>
