<?xml version="1.0" encoding="iso-8859-1"?>
<!-- Generator: Adobe Illustrator 18.0.0, SVG Export Plug-In . SVG Version: 6.00 Build 0)  -->
<!DOCTYPE svg PUBLIC "-//W3C//DTD SVG 1.1//EN" "http://www.w3.org/Graphics/SVG/1.1/DTD/svg11.dtd">
<svg version="1.1" id="Capa_1" xmlns="http://www.w3.org/2000/svg" xmlns:xlink="http://www.w3.org/1999/xlink" x="0px" y="0px"
	 viewBox="0 0 30.001 30.015" style="enable-background:new 0 0 30.001 30.015;" xml:space="preserve">
<g id="_x37__6_">
	<g>
		<path style="fill-rule:evenodd;clip-rule:evenodd;" d="M25.02,1.305c-4.763-2.686-10.854-1.092-13.604,3.56l-3.983,6.739L0,16.398
			l7.762,4.377c0,0,0,0,0,0c-1.375,2.326-0.559,5.3,1.822,6.643c2.382,1.343,5.427,0.546,6.802-1.78l7.762,4.377l0.534-8.684
			l3.983-6.739C31.415,9.94,29.783,3.991,25.02,1.305z M10.58,25.733c-1.429-0.806-1.918-2.59-1.094-3.986l5.175,2.918
			C13.836,26.061,12.009,26.539,10.58,25.733z M26.94,13.619l-3.983,6.739l-0.4,6.513L3.583,16.172l5.575-3.595l3.983-6.739
			c2.2-3.722,7.072-4.997,10.883-2.848C27.835,5.138,29.14,9.897,26.94,13.619z"/>
	</g>
</g>
<g>
</g>
<g>
</g>
<g>
</g>
<g>
</g>
<g>
</g>
<g>
</g>
<g>
</g>
<g>
</g>
<g>
</g>
<g>
</g>
<g>
</g>
<g>
</g>
<g>
</g>
<g>
</g>
<g>
</g>
</svg>
